<svg xmlns="http://www.w3.org/2000/svg" viewBox="-44 -58 88 80" width="32" height="32">
  <!-- Background -->
  <rect x="-44" y="-58" width="88" height="80" rx="16" fill="#060d18"/>
  <!-- Body -->
  <circle cx="-2"  cy=" 4" r="20" fill="#1e3a55"/>
  <circle cx="-16" cy="-4" r="14" fill="#1e3a55"/>
  <circle cx=" 10" cy="-6" r="15" fill="#1e3a55"/>
  <circle cx="-6"  cy="-14" r="12" fill="#1e3a55"/>
  <circle cx=" 4"  cy=" 4" r="14" fill="#1e3a55"/>
  <circle cx="-2"  cy=" 4" r="20" fill="#2a4f70" opacity="0.45"/>
  <circle cx=" 8"  cy="-8" r="12" fill="#2a4f70" opacity="0.35"/>
  <!-- Head -->
  <circle cx="-28" cy="2"    r="11" fill="#2a4f70"/>
  <circle cx="-32" cy="0"    r="2"  fill="#bdd2ff" opacity="0.9"/>
  <circle cx="-33" cy="-0.5" r="1"  fill="#060d18"/>
  <ellipse cx="-24" cy="-10" rx="4" ry="6" fill="#2a4f70" transform="rotate(15 -24 -10)"/>
  <!-- Legs -->
  <rect x="-22" y="20" width="5" height="16" rx="2.5" fill="#1a2d4a"/>
  <rect x="-10" y="22" width="5" height="14" rx="2.5" fill="#1a2d4a"/>
  <rect x="  4" y="22" width="5" height="14" rx="2.5" fill="#1a2d4a"/>
  <rect x=" 15" y="20" width="5" height="16" rx="2.5" fill="#1a2d4a"/>
</svg>
